<?xml version="1.0" encoding="UTF-8"?>
<svg width="304px" height="102px" viewBox="0 0 304 102" version="1.1" xmlns="http://www.w3.org/2000/svg" xmlns:xlink="http://www.w3.org/1999/xlink">
    <!-- Generator: Sketch 55.1 (78136) - https://sketchapp.com -->
    <title>Group 8</title>
    <desc>Created with Sketch.</desc>
    <g id="Page-1" stroke="none" stroke-width="1" fill="none" fill-rule="evenodd">
        <g id="A-Copy-4" transform="translate(-903.000000, -2092.000000)">
            <g id="Group-8" transform="translate(903.000000, 2092.000000)">
                <g id="Lotous-2" transform="translate(2.000000, 0.000000)" fill-rule="nonzero">
                    <g id="Group_1033">
                        <g id="Group_1032">
                            <g id="Group_1031">
                                <path d="M20.9751114,32.3825805 L4.93532032,32.3825805 L4.93532032,0 L0,0 L0,37.3591337 L20.9751114,37.3591337 L20.9751114,32.3825805 Z M41.0067056,34.8730436 L43.4743657,37.3635068 L45.9420259,37.3635068 L45.9420259,12.453409 L41.0067056,12.453409 L41.0067056,14.9438721 C38.8743322,13.3208644 36.2745122,12.4462497 33.6037251,12.453409 C29.1679341,12.4114622 25.0511933,14.7757476 22.821213,18.6459137 C20.5912327,22.5160798 20.5912327,27.2964629 22.821213,31.166629 C25.0511933,35.0367951 29.1679341,37.4010805 33.6037251,37.3591337 C36.2769148,37.3814981 38.8814496,36.5052972 41.0067056,34.8686706 L41.0067056,34.8730436 Z M28.3715923,30.1916726 C25.8801077,27.6752006 25.4964433,23.7331234 27.4551583,20.7754921 C29.4138733,17.8178609 33.1696669,16.6680719 36.4263754,18.0290668 C39.6830838,19.3900618 41.5340486,22.8829435 40.847653,26.3722835 C40.1612574,29.8616235 37.1285922,32.3759993 33.6037251,32.3782074 C31.6361414,32.4010464 29.7452163,31.6092387 28.3715923,30.1872995 L28.3715923,30.1916726 Z M55.5104378,19.5323154 C56.8690454,18.1607049 58.7215248,17.4050529 60.6429109,17.4387083 C64.7292374,17.4441288 68.0405205,20.7860107 68.0458914,24.9100978 L68.0458914,37.3635068 L72.9812671,37.3635068 L72.9812671,24.9057247 C72.9910328,21.5998467 71.6941483,18.4265111 69.3779326,16.0888918 C67.0617168,13.7512725 63.9174367,12.4424039 60.6418276,12.4522598 C57.9711557,12.445878 55.3715575,13.3204182 53.2388472,14.9427789 L50.771187,12.4522598 L48.3035269,12.4522598 L48.3035269,37.3580404 L53.2388472,37.3580404 L53.2388472,24.6072627 C53.2784823,22.6724626 54.0989702,20.837836 55.5104378,19.5279424 L55.5104378,19.5323154 Z M95.0883269,34.8730436 L97.5559871,37.3635068 L100.023647,37.3635068 L100.023647,0 L95.0883269,0 L95.0883269,14.9438721 C92.9559535,13.3208644 90.3561336,12.4462497 87.6853465,12.453409 C83.2495555,12.4114622 79.1328147,14.7757476 76.9028344,18.6459137 C74.672854,22.5160798 74.672854,27.2964629 76.9028344,31.166629 C79.1328147,35.0367951 83.2495555,37.4010805 87.6853465,37.3591337 C90.358166,37.3812549 92.9622816,36.5050668 95.0872437,34.8686706 L95.0883269,34.8730436 Z M82.4521304,30.1916726 C79.9606458,27.6752006 79.5769814,23.7331234 81.5356964,20.7754921 C83.4944114,17.8178609 87.250205,16.6680719 90.5069135,18.0290668 C93.7636219,19.3900618 95.6145867,22.8829435 94.9281911,26.3722835 C94.2417955,29.8616235 91.2091303,32.3759993 87.6842632,32.3782074 C85.7166549,32.4011749 83.8256816,31.609347 82.4521304,30.1872995 L82.4521304,30.1916726 Z" id="Path_1764" fill="#00B1A6"></path>
                                <path d="M123.359176,32.3825805 L107.319385,32.3825805 L107.319385,0 L102.384065,0 L102.384065,37.3591337 L123.359176,37.3591337 L123.359176,32.3825805 Z M143.390771,34.8730436 L145.858431,37.3635068 L148.326091,37.3635068 L148.326091,12.453409 L143.390771,12.453409 L143.390771,14.9438721 C141.258397,13.3208644 138.658577,12.4462497 135.98779,12.453409 C131.551999,12.4114622 127.435258,14.7757476 125.205278,18.6459137 C122.975298,22.5160798 122.975298,27.2964629 125.205278,31.166629 C127.435258,35.0367951 131.551999,37.4010805 135.98779,37.3591337 C138.660993,37.3815814 141.265554,36.5053717 143.390771,34.8686706 L143.390771,34.8730436 Z M130.754574,30.1916726 C128.263089,27.6752006 127.879425,23.7331234 129.83814,20.7754921 C131.796855,17.8178609 135.552649,16.6680719 138.809357,18.0290668 C142.066066,19.3900618 143.91703,22.8829435 143.230635,26.3722835 C142.544239,29.8616235 139.511574,32.3759993 135.986707,32.3782074 C134.019498,32.4007462 132.129021,31.6089622 130.755657,30.1872995 L130.754574,30.1916726 Z M170.428873,37.3646 C170.430412,40.3869236 168.626845,43.1122235 165.859997,44.2684487 C163.093149,45.424674 159.908567,44.7838485 157.792677,42.6450816 L154.289422,46.1807084 C159.122526,51.0295426 166.928176,51.0295426 171.76128,46.1807084 C174.102177,43.8601136 175.403456,40.6759646 175.364193,37.3646 L175.364193,12.453409 L172.896533,12.453409 L170.428873,14.9438721 C168.303656,13.307171 165.699095,12.4309613 163.025893,12.453409 C158.590102,12.4114622 154.473361,14.7757476 152.24338,18.6459137 C150.0134,22.5160798 150.0134,27.2964629 152.24338,31.166629 C154.473361,35.0367951 158.590102,37.4010805 163.025893,37.3591337 C165.696577,37.3656515 168.2962,36.4911031 170.428873,34.8686706 L170.428873,37.3591337 L170.428873,37.3646 Z M157.792677,30.1916726 C155.301192,27.6752006 154.917528,23.7331234 156.876243,20.7754921 C158.834958,17.8178609 162.590751,16.6680719 165.84746,18.0290668 C169.104168,19.3900618 170.955133,22.8829435 170.268737,26.3722835 C169.582342,29.8616235 166.549676,32.3759993 163.024809,32.3782074 C161.057975,32.4004461 159.167946,31.6086857 157.794843,30.1872995 L157.792677,30.1916726 Z M181.329691,16.0928962 C177.134435,20.3014077 176.471455,26.9157104 179.746588,31.8869144 C183.021722,36.8581184 189.321654,38.7999362 194.789934,36.5237004 C200.258214,34.2474645 203.369939,28.3879342 202.220291,22.5319716 C201.070644,16.6760091 195.980219,12.4566287 190.065078,12.4566888 C186.78042,12.3979143 183.618225,13.7142151 181.329691,16.0928962 L181.329691,16.0928962 Z M184.832946,30.1905793 C182.341461,27.6741074 181.957797,23.7320302 183.916512,20.7743989 C185.875227,17.8167676 189.63102,16.6669786 192.887729,18.0279736 C196.144437,19.3889685 197.995402,22.8818502 197.309006,26.3711902 C196.622611,29.8605303 193.589945,32.374906 190.065078,32.3771141 C188.098005,32.400068 186.207503,31.6086687 184.834029,30.1872995 L184.832946,30.1905793 Z M208.613693,25.957448 L212.710573,28.1997394 C213.313477,28.460088 213.754526,28.9984731 213.894573,29.6450389 C214.040402,30.3076296 213.934478,31.0013279 213.59776,31.5888683 C213.223338,32.3445355 212.461175,32.8249729 211.624065,32.8330067 C210.801257,32.91406 209.996361,32.5549576 209.501964,31.8862371 L205.405085,34.6194056 C206.890873,36.7288221 209.361363,37.9006366 211.918711,37.7089793 C214.466057,37.7169342 216.79861,36.2697509 217.941622,33.9721913 C218.949234,32.2423533 219.199179,30.1676886 218.631657,28.2445634 C218.117892,26.3276136 216.827631,24.7178427 215.07749,23.8102708 L210.980611,21.5701659 C210.377706,21.3098172 209.936657,20.7714321 209.79661,20.1248664 C209.650674,19.4622792 209.756604,18.7685412 210.093423,18.1810369 C210.468007,17.4252207 211.229818,16.9441619 212.067118,16.9347121 C212.889926,16.8536587 213.694823,17.2127611 214.189219,17.8814816 L218.286098,15.1483131 C216.799539,13.0388538 214.328026,11.8677733 211.770305,12.060926 C209.223441,12.0525568 206.891011,13.4988172 205.747395,15.7955274 C204.739673,17.526128 204.489738,19.6015022 205.05736,21.5253419 C205.571859,23.4419129 206.861906,25.0514166 208.611527,25.9596345 L208.613693,25.957448 Z" id="Path_1765" fill="#FFFFFF"></path>
                            </g>
                        </g>
                    </g>
                </g>
                <g id="Group-15" transform="translate(0.000000, 50.000000)" fill="#FF6A00">
                    <path d="M0,51.5140187 L0,2.91588785 L10.9683691,2.91588785 L10.9683691,51.5140187 L0,51.5140187 Z M17.9267135,51.5140187 L17.9267135,14.1628838 L28.6174024,14.1628838 L28.6174024,20.6889186 C31.2553646,16.0373832 35.6982483,13.8157543 41.5295331,13.7463284 C49.85994,13.7463284 55.2052845,19.3004005 55.2052845,28.0480641 L55.2052845,51.5140187 L44.5145956,51.5140187 L44.5145956,31.1722296 C44.5145956,26.4512684 41.7377933,23.5353805 37.1560695,23.5353805 C31.810725,23.6048064 28.6174024,27.6315087 28.6174024,33.1161549 L28.6174024,51.5140187 L17.9267135,51.5140187 Z M57.3042248,23.188251 L57.3042248,15.8291055 L62.5107291,15.8291055 L62.5107291,5.5540721 L73.1319979,5.5540721 L73.1319979,15.8291055 L83.2673264,15.8291055 L83.2673264,23.2576769 L73.1319979,23.2576769 L73.1319979,38.670227 C73.1319979,41.7943925 74.450979,43.0440587 76.741841,42.9746328 C78.1302421,42.9746328 79.7963235,42.4886515 81.7400851,41.5861148 L83.961527,49.4312417 C81.1847246,51.0280374 77.7137218,52 74.2427189,52 C67.5783933,52 62.5107291,48.1815754 62.5107291,40.4753004 L62.5107291,23.188251 L57.3042248,23.188251 Z M83.353085,32.9773031 C83.353085,21.4526035 91.1975515,13.8157543 102.582441,13.8157543 C115.702832,13.8157543 121.811797,22.493992 120.909336,36.1014686 L94.113194,36.1014686 C95.362755,40.8224299 98.972598,43.599466 103.762582,43.599466 C107.303005,43.599466 110.635168,42.2109479 113.20371,39.6421896 L118.826735,45.3351135 C115.078051,49.5006676 109.593867,51.9305741 102.860121,51.9305741 C90.9198713,51.9305741 83.353085,44.293725 83.353085,32.9773031 Z M93.9049338,29.7837116 L110.912848,29.7837116 C110.774008,24.8544726 107.580685,21.6608812 102.651861,21.6608812 C97.9312971,21.6608812 94.7379745,24.8544726 93.9049338,29.7837116 Z M124.743778,51.5140187 L124.743778,0 L135.434467,0 L135.434467,51.5140187 L124.743778,51.5140187 Z M142.878752,51.5140187 L142.878752,0 L153.569441,0 L153.569441,51.5140187 L142.878752,51.5140187 Z M157.473302,32.8384513 C157.473302,21.3831776 165.526029,13.8157543 177.535699,13.8157543 C189.475949,13.8157543 197.528676,21.3831776 197.528676,32.8384513 C197.528676,44.2242991 189.475949,51.9305741 177.535699,51.9305741 C165.526029,51.9305741 157.473302,44.2242991 157.473302,32.8384513 Z M168.233411,32.9773031 C168.233411,39.0867824 171.982094,43.2523364 177.535699,43.2523364 C183.019884,43.2523364 186.837987,39.0867824 186.837987,32.9773031 C186.837987,26.8678238 183.019884,22.7022697 177.535699,22.7022697 C171.982094,22.7022697 168.233411,26.8678238 168.233411,32.9773031 Z M201.016017,51.5140187 L201.016017,14.1628838 L211.706706,14.1628838 L211.706706,20.6194927 C214.344668,16.0373832 218.718132,13.8157543 224.341157,13.7463284 C230.658382,13.7463284 235.170686,16.9399199 236.975607,22.3551402 C239.405309,16.5927904 244.125873,13.8157543 250.443098,13.7463284 C258.704085,13.7463284 263.910589,19.3004005 263.910589,28.0480641 L263.910589,51.5140187 L253.289321,51.5140187 L253.289321,31.1722296 C253.289321,26.3818425 250.512518,23.5353805 246.069635,23.5353805 C240.93255,23.6048064 237.808648,27.6315087 237.808648,33.046729 L237.808648,51.5140187 L227.187379,51.5140187 L227.187379,31.1722296 C227.187379,26.3818425 224.410577,23.5353805 220.037113,23.5353805 C214.830609,23.6048064 211.706706,27.6315087 211.706706,33.046729 L211.706706,51.5140187 L201.016017,51.5140187 Z M266.35663,32.9773031 C266.35663,21.4526035 274.201097,13.8157543 285.585986,13.8157543 C298.706377,13.8157543 304.815342,22.493992 303.912881,36.1014686 L277.116739,36.1014686 C278.3663,40.8224299 281.976143,43.599466 286.766127,43.599466 C290.30655,43.599466 293.638713,42.2109479 296.207255,39.6421896 L301.83028,45.3351135 C298.081596,49.5006676 292.597412,51.9305741 285.863666,51.9305741 C273.923416,51.9305741 266.35663,44.293725 266.35663,32.9773031 Z M276.908479,29.7837116 L293.916393,29.7837116 C293.777553,24.8544726 290.58423,21.6608812 285.655406,21.6608812 C280.934842,21.6608812 277.74152,24.8544726 276.908479,29.7837116 Z" id="Intellome" fill-rule="nonzero"></path>
                    <circle id="Oval" cx="177.5" cy="33.5" r="12.5"></circle>
                    <circle id="Oval-Copy" cx="285" cy="26" r="10"></circle>
                </g>
            </g>
        </g>
    </g>
</svg>